<svg id="Layer_1" data-name="Layer 1" xmlns="http://www.w3.org/2000/svg" viewBox="0 0 100 100"><path d="M28.2,81.119a22.574,22.574,0,0,1-8.969,12.627A1.5,1.5,0,0,0,20.1,96.47h59.81a1.5,1.5,0,0,0,.865-2.726A22.68,22.68,0,0,1,71.8,81.108a41.845,41.845,0,1,0-43.6.011ZM75.753,93.47H24.241a25.339,25.339,0,0,0,6.664-10.855h.324l18.78.021h0a1.492,1.492,0,0,0,.213-.021H69.1A25.269,25.269,0,0,0,75.753,93.47ZM49.989,6.53A38.844,38.844,0,0,1,68.353,79.615H49.989a1.45,1.45,0,0,0-.21.021l-18.152-.021A38.851,38.851,0,0,1,49.989,6.53Z" id="id_109" style="fill: rgb(255, 255, 255);"></path><path d="M60.774,16.052a31.383,31.383,0,0,1,20.48,29.354,1.5,1.5,0,0,0,3,0A34.4,34.4,0,0,0,61.81,13.236a1.5,1.5,0,0,0-1.036,2.816Z" id="id_110" style="fill: rgb(255, 255, 255);"></path><path d="M49.991,14.143a31.763,31.763,0,0,1,3.2.161,1.336,1.336,0,0,0,.154.008,1.5,1.5,0,0,0,.149-2.992,34.85,34.85,0,0,0-3.5-.177,1.5,1.5,0,0,0,0,3Z" id="id_111" style="fill: rgb(255, 255, 255);"></path><path d="M63.875,86.125H36.146a1.5,1.5,0,0,0,0,3H63.875a1.5,1.5,0,0,0,0-3Z" id="id_112" style="fill: rgb(255, 255, 255);"></path></svg>